<svg width="24" height="24" viewBox="0 0 24 24" fill="none" xmlns="http://www.w3.org/2000/svg">
<path d="M2 9.65356L11.0033 2.45092C11.7548 1.84969 12.8227 1.84969 13.5742 2.45092L22.5775 9.65356" stroke="#24BAEC" stroke-width="1.5" stroke-linecap="round" stroke-linejoin="round"/>
<path d="M9.69356 3.53105L5.57805 6.87489C4.83083 7.48201 4.45722 7.78557 4.25748 8.2052C4.05775 8.62483 4.05775 9.10622 4.05775 10.069V13.769C4.05775 17.649 4.05775 19.5892 5.26315 20.7945C6.46857 22 8.40862 22 12.2888 22C16.1689 22 18.109 22 19.3143 20.7945C20.5198 19.5892 20.5198 17.649 20.5198 13.769V10.069C20.5198 9.10622 20.5198 8.62483 20.3201 8.2052C20.1203 7.78557 19.7467 7.48201 18.9995 6.87489L14.884 3.53105C13.6409 2.52104 13.0194 2.01604 12.2888 2.01604C11.5582 2.01604 10.9366 2.52104 9.69356 3.53105Z" stroke="#24BAEC" stroke-width="1.5"/>
<path d="M9.97363 16.084H14.6036" stroke="#24BAEC" stroke-width="1.5" stroke-linecap="round"/>
</svg>
